<?xml version="1.0" standalone="no"?><!DOCTYPE svg PUBLIC "-//W3C//DTD SVG 1.1//EN" "http://www.w3.org/Graphics/SVG/1.1/DTD/svg11.dtd"><svg t="1678847421728" class="icon" viewBox="0 0 1024 1024" version="1.1" xmlns="http://www.w3.org/2000/svg" p-id="7675" xmlns:xlink="http://www.w3.org/1999/xlink" width="128" height="128"><path d="M392.533333 136.533333C200.533333 136.533333 42.666667 264.533333 42.666667 418.133333c4.266667 89.6 51.2 174.933333 132.266666 217.6l-38.4 110.933334L256 674.133333c42.666667 17.066667 89.6 21.333333 136.533333 21.333334-12.8-29.866667-17.066667-59.733333-17.066666-93.866667 0-153.6 145.066667-281.6 328.533333-281.6h25.6c-51.2-102.4-179.2-183.466667-337.066667-183.466667M256 251.733333c25.6 0 46.933333 21.333333 46.933333 46.933334S281.6 345.6 256 345.6 209.066667 328.533333 209.066667 298.666667c0-25.6 17.066667-46.933333 46.933333-46.933334m234.666667 0c25.6 0 46.933333 21.333333 46.933333 46.933334s-21.333333 46.933333-46.933333 46.933333c-25.6 0-46.933333-21.333333-46.933334-46.933333s17.066667-46.933333 46.933334-46.933334m209.066666 119.466667c-153.6 0-281.6 106.666667-281.6 234.666667s128 234.666667 281.6 234.666666c29.866667 0 59.733333-4.266667 89.6-12.8l98.133334 59.733334-29.866667-89.6c72.533333-38.4 119.466667-110.933333 123.733333-192 0-128-128-234.666667-281.6-234.666667m-93.866666 115.2c25.6 0 46.933333 21.333333 46.933333 46.933333s-21.333333 46.933333-46.933333 46.933334c-25.6 0-46.933333-21.333333-46.933334-46.933334 0-25.6 21.333333-46.933333 46.933334-46.933333m187.733333 0c25.6 0 46.933333 21.333333 46.933333 46.933333s-21.333333 46.933333-46.933333 46.933334-46.933333-21.333333-46.933333-46.933334c0-25.6 21.333333-46.933333 46.933333-46.933333z" p-id="7676" fill="#2c2c2c"></path></svg>